{
	"asset":{
		"generator":"Khronos glTF Blender I/O v4.1.63",
		"version":"2.0"
	},
	"scene":0,
	"scenes":[
		{
			"name":"Scene",
			"nodes":[
				0,
				1
			]
		}
	],
	"nodes":[
		{
			"mesh":0,
			"name":"Cube",
			"rotation":[
				1,
				0,
				0,
				0
			],
			"scale":[
				-0.009007113985717297,
				-0.9368808269500732,
				-0.6099894642829895
			],
			"translation":[
				0.012404720298945904,
				0.42755088210105896,
				0.03916696831583977
			]
		},
		{
			"mesh":1,
			"name":"poster1",
			"rotation":[
				0.5,
				0.5,
				-0.5,
				0.5
			],
			"scale":[
				1.8527718782424927,
				1,
				1.8653650283813477
			],
			"translation":[
				0.02611420676112175,
				0.4267911911010742,
				0.04041986167430878
			]
		}
	],
	"materials":[
		{
			"doubleSided":true,
			"name":"Material.001",
			"pbrMetallicRoughness":{
				"baseColorFactor":[
					0.06462518125772476,
					0.060232266783714294,
					0.06668645888566971,
					1
				],
				"metallicFactor":0,
				"roughnessFactor":0.5
			}
		},
		{
			"alphaMode":"BLEND",
			"doubleSided":true,
			"name":"poster1",
			"pbrMetallicRoughness":{
				"baseColorTexture":{
					"index":0
				},
				"metallicFactor":0,
				"roughnessFactor":0.5
			}
		}
	],
	"meshes":[
		{
			"name":"Cube.001",
			"primitives":[
				{
					"attributes":{
						"POSITION":0,
						"NORMAL":1,
						"TEXCOORD_0":2
					},
					"indices":3,
					"material":0
				}
			]
		},
		{
			"name":"poster1.001",
			"primitives":[
				{
					"attributes":{
						"POSITION":4,
						"NORMAL":5,
						"TEXCOORD_0":6
					},
					"indices":7,
					"material":1
				}
			]
		}
	],
	"textures":[
		{
			"sampler":0,
			"source":0
		}
	],
	"images":[
		{
			"mimeType":"image/png",
			"name":"poster1",
			"uri":"poster1.png"
		}
	],
	"accessors":[
		{
			"bufferView":0,
			"componentType":5126,
			"count":24,
			"max":[
				1,
				1,
				1
			],
			"min":[
				-1,
				-1,
				-1
			],
			"type":"VEC3"
		},
		{
			"bufferView":1,
			"componentType":5126,
			"count":24,
			"type":"VEC3"
		},
		{
			"bufferView":2,
			"componentType":5126,
			"count":24,
			"type":"VEC2"
		},
		{
			"bufferView":3,
			"componentType":5123,
			"count":36,
			"type":"SCALAR"
		},
		{
			"bufferView":4,
			"componentType":5126,
			"count":4,
			"max":[
				0.3249336779117584,
				0,
				0.5
			],
			"min":[
				-0.3249336779117584,
				0,
				-0.5
			],
			"type":"VEC3"
		},
		{
			"bufferView":5,
			"componentType":5126,
			"count":4,
			"type":"VEC3"
		},
		{
			"bufferView":6,
			"componentType":5126,
			"count":4,
			"type":"VEC2"
		},
		{
			"bufferView":7,
			"componentType":5123,
			"count":6,
			"type":"SCALAR"
		}
	],
	"bufferViews":[
		{
			"buffer":0,
			"byteLength":288,
			"byteOffset":0,
			"target":34962
		},
		{
			"buffer":0,
			"byteLength":288,
			"byteOffset":288,
			"target":34962
		},
		{
			"buffer":0,
			"byteLength":192,
			"byteOffset":576,
			"target":34962
		},
		{
			"buffer":0,
			"byteLength":72,
			"byteOffset":768,
			"target":34963
		},
		{
			"buffer":0,
			"byteLength":48,
			"byteOffset":840,
			"target":34962
		},
		{
			"buffer":0,
			"byteLength":48,
			"byteOffset":888,
			"target":34962
		},
		{
			"buffer":0,
			"byteLength":32,
			"byteOffset":936,
			"target":34962
		},
		{
			"buffer":0,
			"byteLength":12,
			"byteOffset":968,
			"target":34963
		}
	],
	"samplers":[
		{
			"magFilter":9729,
			"minFilter":9987,
			"wrapS":33071,
			"wrapT":33071
		}
	],
	"buffers":[
		{
			"byteLength":980,
			"uri":"poster.bin"
		}
	]
}
